<svg xmlns="http://www.w3.org/2000/svg" viewBox="88.7 0 493.6 600" enable-background="new 88.7 0 493.6 600"><defs><radialGradient id="0" cx="129.23" cy="842.95" r="221.59" gradientTransform="matrix(1.9102 0 0-1.9102 88.63 1910.22)" gradientUnits="userSpaceOnUse"><stop stop-color="#28a8e0"/><stop offset="1" stop-color="#025294"/></radialGradient></defs><path fill="url(#0)" d="m153.1 555.9c-34.4-39.8-90-164.5-51.1-320.1 37.1-148.3 125.2-192 189.5-223.8 8.3-4.1 16.2-8 23.4-11.9v427.6c-22.1 7.2-134.1 46.4-157.7 101.9-3.8 8.7-5.2 17.6-4.1 26.3m240-167.4l83.9-14.3-83.9-205.8v220.1m99.8-3.6l-8.7-5.3-91.1 15.5 2.8 8 97-18.2m-.9-134.2l71.9-107.5-90.5 61 18.6 46.5m-93.9 349.3c27.4 0 43.2-7.3 43.3-7.3l.5-.2 140.4-46.9-.1-274.3-82.3 119.8-103.7 18.5.6 55.6-93 50.1c-7.3 4.1-26.2 17.8-25.8 31.9.3 10.9 12.5 22 34.8 32.4 29.5 13.4 58.2 20.4 85.3 20.4"/></svg>